<svg xmlns="http://www.w3.org/2000/svg" width="166.501" height="166.5" viewBox="0 0 166.501 166.5"><defs><style>.a{fill:#754ef9;}</style></defs><path class="a" d="M148.662,0H17.839A17.839,17.839,0,0,0,0,17.841v95.144a17.839,17.839,0,0,0,17.839,17.839H38.95L35.715,159.9a5.947,5.947,0,0,0,9.889,5.072l37.95-34.151h65.108A17.839,17.839,0,0,0,166.5,112.985V17.841A17.839,17.839,0,0,0,148.662,0Zm5.946,112.983a5.947,5.947,0,0,1-5.947,5.947H81.27a5.948,5.948,0,0,0-3.978,1.528L49.26,145.691,51.5,125.538a5.945,5.945,0,0,0-5.911-6.606H17.839a5.947,5.947,0,0,1-5.947-5.947V17.841a5.947,5.947,0,0,1,5.947-5.947H148.662a5.947,5.947,0,0,1,5.947,5.947v95.144Z" transform="translate(0 -0.002)"/></svg>