<svg xmlns="http://www.w3.org/2000/svg" width="159.849" height="145.999" viewBox="0 0 159.849 145.999"><defs><style>.a{fill:#754ef9;}</style></defs><path class="a" d="M159.849,22.181H0V150.809H121.694l15.42,17.371h22.71V146.126h.023Zm-9.366,9.366v28.1H9.366v-28.1ZM9.366,69.012H44.957v72.431H9.366Zm44.957,72.431V69.012h96.159v67.932l-25.038-21.97a19.088,19.088,0,0,0-3.564-11.728c-3.37-4.711-9.344-6.329-15.12-7.894-4.625-1.253-9.408-2.549-12.729-5.288l-3.457-2.852-3,3.328c-7.928,8.791-2.115,27.756,3.093,35.037A19.177,19.177,0,0,0,106.42,133.6l6.96,7.84ZM111.989,122.4a9.87,9.87,0,0,1-13.7-2.274c-2.632-3.349-6.035-13.773-5.121-19.579a60.014,60.014,0,0,0,11.148,3.844c4.384,1.188,8.526,2.309,9.952,4.3a9.835,9.835,0,0,1-2.274,13.705Zm38.47,36.413h-9.134l-24.941-28.1a19.1,19.1,0,0,0,6.032-5.941l28.043,24.606v9.43Z" transform="translate(0 -22.181)"/><path class="a" d="M59,82.181h9.366v9.366H59Z" transform="translate(-40.58 -63.449)"/><path class="a" d="M203,262.181h9.366v9.366H203Z" transform="translate(-139.623 -187.252)"/><path class="a" d="M119,82.181h9.366v9.366H119Z" transform="translate(-81.848 -63.449)"/><path class="a" d="M203,202.181h14.049v9.366H203Z" transform="translate(-139.623 -145.984)"/><path class="a" d="M389,202.181h19.669v9.366H389Z" transform="translate(-267.553 -145.984)"/><path class="a" d="M66,206.181H79.113v9.366H66Z" transform="translate(-45.395 -148.735)"/><path class="a" d="M66,271.181H79.113v9.366H66Z" transform="translate(-45.395 -193.442)"/><path class="a" d="M66,336.181H79.113v9.366H66Z" transform="translate(-45.395 -238.149)"/></svg>