<svg xmlns="http://www.w3.org/2000/svg" width="171.5" height="171.5" viewBox="0 0 171.5 171.5"><defs><style>.a{fill:#754ef9;}</style></defs><path class="a" d="M85.75,0A85.75,85.75,0,1,0,171.5,85.75,85.847,85.847,0,0,0,85.75,0ZM80.726,42.09A117.234,117.234,0,0,1,58.29,38.94c1.154-2.735,2.406-5.361,3.757-7.849,5.54-10.208,12.341-17.372,18.679-19.967Zm0,10.057V80.725H49.343a126.275,126.275,0,0,1,5.488-32.3A127.227,127.227,0,0,0,80.726,52.147Zm0,38.628v28.579a127.225,127.225,0,0,0-25.9,3.721,126.275,126.275,0,0,1-5.488-32.3Zm0,38.636v30.966c-6.338-2.595-13.139-9.758-18.679-19.967-1.35-2.489-2.6-5.115-3.757-7.849a117.219,117.219,0,0,1,22.436-3.149Zm10.049,0a117.234,117.234,0,0,1,22.436,3.149c-1.154,2.735-2.406,5.361-3.757,7.849-5.54,10.208-12.341,17.372-18.679,19.967Zm0-10.057V90.774h31.383a126.275,126.275,0,0,1-5.488,32.3A127.227,127.227,0,0,0,90.774,119.353Zm0-38.628V52.147a127.225,127.225,0,0,0,25.9-3.721,126.275,126.275,0,0,1,5.488,32.3Zm0-38.636V11.124c6.338,2.595,13.139,9.758,18.679,19.967,1.35,2.489,2.6,5.115,3.757,7.849A117.234,117.234,0,0,1,90.774,42.09ZM118.286,26.3a76.284,76.284,0,0,0-8.131-12.212,75.792,75.792,0,0,1,26.8,15.959,94.947,94.947,0,0,1-14.017,6.066A101.81,101.81,0,0,0,118.286,26.3Zm-65.072,0a101.8,101.8,0,0,0-4.652,9.813,95.085,95.085,0,0,1-14.017-6.066,75.792,75.792,0,0,1,26.8-15.959A76.314,76.314,0,0,0,53.214,26.3ZM45.163,45.556a134.559,134.559,0,0,0-5.88,35.17H10.22A75.347,75.347,0,0,1,27.4,37.572a103.354,103.354,0,0,0,17.762,7.984Zm-5.88,45.218a134.549,134.549,0,0,0,5.88,35.17A103.353,103.353,0,0,0,27.4,133.928,75.347,75.347,0,0,1,10.22,90.774Zm9.279,44.614a101.808,101.808,0,0,0,4.652,9.813,76.372,76.372,0,0,0,8.131,12.212,75.775,75.775,0,0,1-26.8-15.959,94.945,94.945,0,0,1,14.016-6.066Zm69.723,9.813a101.8,101.8,0,0,0,4.652-9.813,95.082,95.082,0,0,1,14.017,6.066,75.792,75.792,0,0,1-26.8,15.959A76.313,76.313,0,0,0,118.285,145.2Zm8.051-19.258a134.558,134.558,0,0,0,5.88-35.17h29.063A75.347,75.347,0,0,1,144.1,133.928a103.354,103.354,0,0,0-17.762-7.984Zm5.88-45.218a134.549,134.549,0,0,0-5.88-35.17A103.354,103.354,0,0,0,144.1,37.572a75.347,75.347,0,0,1,17.181,43.154Zm0,0"/></svg>