<svg xmlns="http://www.w3.org/2000/svg" width="125.515" height="125.515" viewBox="0 0 125.515 125.515"><defs><style>.a{fill:#c73b36;}</style></defs><path class="a" d="M231.024,219.012A12.012,12.012,0,1,1,219.012,207,12.012,12.012,0,0,1,231.024,219.012Zm0,0" transform="translate(-156.255 -156.255)"/><path class="a" d="M193.121,143.779a11.933,11.933,0,0,0-6.839-6.839,19.938,19.938,0,0,0-6.691-1.24c-3.8-.173-4.94-.211-14.562-.211s-10.762.036-14.562.21a19.951,19.951,0,0,0-6.691,1.241,11.939,11.939,0,0,0-6.84,6.839,19.945,19.945,0,0,0-1.24,6.692c-.173,3.8-.211,4.939-.211,14.562s.037,10.762.211,14.562a19.938,19.938,0,0,0,1.24,6.691,11.934,11.934,0,0,0,6.839,6.839,19.914,19.914,0,0,0,6.692,1.241c3.8.173,4.938.21,14.561.21s10.763-.036,14.562-.21a19.914,19.914,0,0,0,6.692-1.241,11.933,11.933,0,0,0,6.839-6.839,19.956,19.956,0,0,0,1.241-6.691c.173-3.8.21-4.94.21-14.562s-.036-10.762-.21-14.562A19.913,19.913,0,0,0,193.121,143.779Zm-28.092,39.758a18.5,18.5,0,1,1,18.5-18.5A18.5,18.5,0,0,1,165.028,183.536Zm19.236-33.417a4.325,4.325,0,1,1,4.325-4.325A4.325,4.325,0,0,1,184.265,150.12Zm0,0" transform="translate(-102.271 -102.274)"/><path class="a" d="M62.757,0a62.757,62.757,0,1,0,62.757,62.757A62.764,62.764,0,0,0,62.757,0ZM98.576,77.614A26.439,26.439,0,0,1,96.9,86.362,18.426,18.426,0,0,1,86.362,96.9a26.457,26.457,0,0,1-8.747,1.675c-3.843.175-5.07.217-14.857.217s-11.014-.042-14.858-.217A26.457,26.457,0,0,1,39.153,96.9,18.426,18.426,0,0,1,28.614,86.362a26.433,26.433,0,0,1-1.675-8.747c-.177-3.844-.218-5.071-.218-14.858s.041-11.014.217-14.857a26.442,26.442,0,0,1,1.674-8.748,18.439,18.439,0,0,1,10.54-10.539A26.464,26.464,0,0,1,47.9,26.938c3.843-.175,5.07-.217,14.857-.217s11.014.042,14.857.218a26.469,26.469,0,0,1,8.748,1.673A18.431,18.431,0,0,1,96.9,39.152,26.436,26.436,0,0,1,98.577,47.9c.175,3.843.216,5.07.216,14.857S98.752,73.772,98.576,77.614Zm0,0"/></svg>