<svg xmlns="http://www.w3.org/2000/svg" width="124.829" height="124.829" viewBox="0 0 124.829 124.829"><defs><style>.a{fill:#c73b36;}</style></defs><path class="a" d="M62.414,0a62.414,62.414,0,1,0,62.414,62.414A62.414,62.414,0,0,0,62.414,0ZM39.028,104.672H21.482V48.218H39.028ZM30.259,40.5A10.173,10.173,0,1,1,40.427,30.325,10.176,10.176,0,0,1,30.259,40.5Zm74.486,64.172H87.213V77.218c0-6.547-.121-14.968-9.12-14.968-9.126,0-10.529,7.131-10.529,14.494v27.927H50.032V48.218H66.861v7.714H67.1c2.343-4.439,8.064-9.118,16.6-9.118,17.767,0,21.047,11.692,21.047,26.893v30.965Z"/></svg>