<svg xmlns="http://www.w3.org/2000/svg" width="125.515" height="125.515" viewBox="0 0 125.515 125.515"><defs><style>.a{fill:#c73b36;}</style></defs><path class="a" d="M62.757,0a62.757,62.757,0,1,0,62.757,62.757A62.764,62.764,0,0,0,62.757,0ZM91.412,48.932q.042.926.041,1.862c0,19.034-14.488,40.983-40.984,40.984h0a40.773,40.773,0,0,1-22.079-6.471,29.3,29.3,0,0,0,3.436.2A28.9,28.9,0,0,0,49.716,79.34,14.421,14.421,0,0,1,36.259,69.335a14.357,14.357,0,0,0,6.506-.247,14.408,14.408,0,0,1-11.556-14.12c0-.065,0-.124,0-.184a14.305,14.305,0,0,0,6.524,1.8,14.417,14.417,0,0,1-4.46-19.231A40.9,40.9,0,0,0,62.966,52.406,14.412,14.412,0,0,1,87.512,39.269a28.892,28.892,0,0,0,9.147-3.5,14.461,14.461,0,0,1-6.335,7.967A28.728,28.728,0,0,0,98.6,41.472a29.273,29.273,0,0,1-7.185,7.46Zm0,0"/></svg>